<?xml version="1.0" encoding="UTF-8" standalone="no"?>
<!-- Generator: Adobe Illustrator 16.0.0, SVG Export Plug-In . SVG Version: 6.00 Build 0)  -->

<svg
   version="1.1"
   id="Capa_1"
   x="0px"
   y="0px"
   width="32.75px"
   height="32.75px"
   viewBox="0 0 32.75 32.75"
   style="enable-background:new 0 0 32.75 32.75;"
   xml:space="preserve"
   xmlns="http://www.w3.org/2000/svg"
   xmlns:svg="http://www.w3.org/2000/svg">
<path d="M 29.375,1.25 H 28.252 C 28.281,1.157 28.311,1.064 28.311,0.961 28.311,0.431 27.879,0 27.348,0 c -0.531,0 -0.961,0.431 -0.961,0.961 0,0.103 0.028,0.196 0.059,0.289 h -3.68 C 22.795,1.157 22.825,1.064 22.825,0.961 22.823,0.431 22.393,0 21.861,0 21.331,0 20.9,0.431 20.9,0.961 c 0,0.103 0.029,0.196 0.059,0.289 H 17.277 C 17.306,1.157 17.336,1.064 17.336,0.961 17.336,0.431 16.906,0 16.375,0 c -0.531,0 -0.961,0.431 -0.961,0.961 0,0.103 0.028,0.196 0.058,0.289 H 11.791 C 11.82,1.157 11.85,1.064 11.85,0.961 11.85,0.431 11.419,0 10.889,0 10.358,0 9.927,0.431 9.927,0.961 c 0,0.103 0.028,0.196 0.058,0.289 H 6.305 C 6.335,1.157 6.364,1.064 6.364,0.961 6.364,0.43 5.934,0 5.403,0 4.872,0 4.441,0.431 4.441,0.961 c 0,0.103 0.028,0.196 0.058,0.289 H 3.375 C 1.857,1.25 0.625,2.483 0.625,4 v 26 c 0,1.518 1.232,2.75 2.75,2.75 H 26.27 l 5.855,-5.855 V 4 c 0,-1.517 -1.232,-2.75 -2.75,-2.75 z m 1.25,25.023 -0.311,0.311 h -2.355 c -1.102,0 -2,0.9 -2,2 v 2.355 L 25.648,31.25 H 3.375 C 2.686,31.25 2.125,30.689 2.125,30 V 3 h 28.5 z" id="path2" />
</svg>
